<?xml version="1.0" standalone="no"?>
<!DOCTYPE svg PUBLIC "-//W3C//DTD SVG 1.1//EN" "http://www.w3.org/Graphics/SVG/1.1/DTD/svg11.dtd" >
<!--
2013-9-30: Created.
-->
<svg>
<metadata>
Created by iconfont
</metadata>
<defs>

<font id="iconfont" horiz-adv-x="1024" >
  <font-face
    font-family="iconfont"
    font-weight="500"
    font-stretch="normal"
    units-per-em="1024"
    ascent="896"
    descent="-128"
  />
    <missing-glyph />
    
    <glyph glyph-name="bociguanli" unicode="&#58917;" d="M756 716c48.601 0 88-39.399 88-88v-602c0-48.601-39.399-88-88-88H154c-48.601 0-88 39.399-88 88V628c0 48.601 39.399 88 88 88h602z m0-54H154c-18.59 0-33.695-14.92-34-33.438V26c0-18.59 14.92-33.695 33.438-34H756c18.59 0 33.695 14.92 34 33.438V628c0 18.59-14.92 33.695-33.438 34H756zM843 830c62.878 0 113.97-50.463 114.985-113.098L958 715v-602c0-14.912-12.088-27-27-27-14.763 0-26.758 11.848-26.996 26.554L904 113V715c0 33.352-26.767 60.453-59.991 60.992L843 776H289.275c-14.911 0-27 12.088-27 27 0 14.763 11.848 26.758 26.554 27H843zM245 161c14.912 0 27-12.088 27-27s-12.088-27-27-27h-20c-14.912 0-27 12.088-27 27s12.088 27 27 27h20z m437 0c14.912 0 27-12.088 27-27s-12.088-27-27-27H342c-14.912 0-27 12.088-27 27s12.088 27 27 27h340zM569 354c14.912 0 27-12.088 27-27s-12.088-27-27-27H342c-14.912 0-27 12.088-27 27s12.088 27 27 27h227z m-324 0c14.912 0 27-12.088 27-27s-12.088-27-27-27h-20c-14.912 0-27 12.088-27 27s12.088 27 27 27h20z m324 193c14.912 0 27-12.088 27-27s-12.088-27-27-27H342c-14.912 0-27 12.088-27 27s12.088 27 27 27h227z m-324 0c14.912 0 27-12.088 27-27s-12.088-27-27-27h-20c-14.912 0-27 12.088-27 27s12.088 27 27 27h20z"  horiz-adv-x="1024" />

    
    <glyph glyph-name="biaoqianguanli" unicode="&#58918;" d="M171.149 801.786L395.185 828.42a88 88 0 0 0 72.614-25.16l464.04-464.04c34.366-34.365 34.366-90.084 0-124.45L682.23-34.839c-34.366-34.366-90.085-34.366-124.45 0L93.605 429.335a88 88 0 0 0-25.195 72.31l25.706 222.84c4.672 40.5 36.549 72.488 77.032 77.3z m6.375-53.623c-15.483-1.84-27.708-13.97-29.705-29.393l-0.058-0.473-25.706-222.84a34.016 34.016 0 0 1 9.374-27.578l0.36-0.36 464.174-464.174c13.145-13.145 34.376-13.276 47.686-0.398l0.397 0.398 249.609 249.609c13.145 13.145 13.276 34.375 0.394 47.682l-0.394 0.401-464.04 464.04a34 34 0 0 1-27.547 9.777l-0.508-0.056-224.036-26.635zM784.12 294.434c10.545 10.544 27.64 10.544 38.185 0 10.544-10.544 10.544-27.64 0-38.184L640.578 74.524c-10.544-10.544-27.64-10.544-38.184 0-10.544 10.544-10.544 27.64 0 38.184l181.727 181.726zM233.967 664.097c46.863 46.862 122.843 46.862 169.706 0 46.394-46.395 46.858-121.327 1.391-168.292l-1.391-1.414c-46.863-46.863-122.843-46.863-169.706 0-46.394 46.394-46.858 121.326-1.392 168.29l1.392 1.416z m38.184-38.184c-25.775-25.775-25.775-67.564 0-93.338 25.774-25.775 67.563-25.775 93.338 0 25.774 25.774 25.774 67.563 0 93.338-25.775 25.774-67.564 25.774-93.338 0z"  horiz-adv-x="1024" />

    
    <glyph glyph-name="cangkuguanli" unicode="&#58919;" d="M469.004 815.027c25.165 19.121 59.901 19.287 85.23 0.51l0.764-0.575 391.51-298.408c11.859-9.04 14.145-25.981 5.106-37.84-8.95-11.742-25.643-14.1-37.484-5.375l-0.357 0.268-391.51 298.408a17 17 0 0 1-20.278 0.247l-0.311-0.231-392.785-298.449c-11.873-9.021-28.811-6.71-37.833 5.163-8.931 11.755-6.755 28.474 4.81 37.56l0.353 0.274L469.004 815.027zM206 550v-498.877c0-33.352 26.767-60.453 59.991-60.992l1.009-0.008h490.047c33.353 0 60.453 26.767 60.992 59.992l0.008 1.008V550h54v-498.877c0-62.877-50.463-113.969-113.098-114.984l-1.902-0.016H267c-62.878 0-113.97 50.463-114.985 113.099l-0.015 1.901V550h54zM451 279c24.3 0 44-19.7 44-44v-157c0-24.3-19.7-44-44-44H294c-24.3 0-44 19.7-44 44V235c0 24.3 19.7 44 44 44h157z m292 0c24.3 0 44-19.7 44-44v-157c0-24.3-19.7-44-44-44H586c-24.3 0-44 19.7-44 44V235c0 24.3 19.7 44 44 44h157z m-302-54H304v-137h137V225z m292 0H596v-137h137V225zM451 568c24.3 0 44-19.7 44-44v-157c0-24.3-19.7-44-44-44H294c-24.3 0-44 19.7-44 44V524c0 24.3 19.7 44 44 44h157z m-10-54H304v-137h137V514z"  horiz-adv-x="1024" />

    
    <glyph glyph-name="chukuguanli" unicode="&#58920;" d="M469.051 814.542c25.147 19.074 59.827 19.239 85.136 0.509l0.764-0.573 391.538-297.91c11.867-9.03 14.168-25.97 5.139-37.837-8.94-11.748-25.632-14.12-37.48-5.406l-0.357 0.268-391.539 297.91a17 17 0 0 1-20.256 0.246l-0.311-0.23-392.814-297.95c-11.88-9.012-28.817-6.686-37.829 5.195-8.921 11.761-6.73 28.478 4.842 37.556l0.353 0.272 392.814 297.95zM179 577c14.763 0 26.758-11.848 26.996-26.554L206 550v-498.877c0-33.352 26.767-60.453 59.991-60.992l1.009-0.008h207.758c14.911 0 27-12.088 27-27 0-14.762-11.848-26.758-26.554-27H267c-62.878 0-113.97 50.463-114.985 113.099l-0.015 1.901V550c0 14.912 12.088 27 27 27z m666.047 0c14.763 0 26.758-11.848 26.996-26.554l0.004-0.446v-190.635c0-14.912-12.088-27-27-27-14.763 0-26.758 11.848-26.996 26.554l-0.004 0.446V550c0 14.912 12.088 27 27 27zM623.813-64a36.611 36.611 0 0 0-16.407 3.87 36.638 36.638 0 0 0-20.281 32.773V82.57H403.687c-20.258 0-36.687 16.41-36.687 36.643V265.786c0 20.233 16.43 36.642 36.687 36.642h183.438V412.357a36.638 36.638 0 0 0 20.28 32.774 36.725 36.725 0 0 0 38.42-3.46l293.5-219.857a36.619 36.619 0 0 0 0-58.628l-293.5-219.857A36.734 36.734 0 0 0 623.812-64zM419 141.983h177.768c23.533 0 42.618-18.439 42.618-41.175V-4L902 192.212 639.386 383v-100.515c0-22.736-19.085-41.175-42.618-41.175H419v-99.327zM309 283c11.046 0 20-8.954 20-20v-51c0-11.046-8.954-20-20-20h-51c-11.046 0-20 8.954-20 20v51c0 11.046 8.954 20 20 20h51z m0 135c11.046 0 20-8.954 20-20v-52c0-11.046-8.954-20-20-20h-51c-11.046 0-20 8.954-20 20v52c0 11.046 8.954 20 20 20h51z m143 0c11.046 0 20-8.954 20-20v-52c0-11.046-8.954-20-20-20h-52c-11.046 0-20 8.954-20 20v52c0 11.046 8.954 20 20 20h52zM309 557c11.046 0 20-8.954 20-20v-51c0-11.046-8.954-20-20-20h-51c-11.046 0-20 8.954-20 20v51c0 11.046 8.954 20 20 20h51z m143 0c11.046 0 20-8.954 20-20v-51c0-11.046-8.954-20-20-20h-52c-11.046 0-20 8.954-20 20v51c0 11.046 8.954 20 20 20h52z m142 0c11.046 0 20-8.954 20-20v-51c0-11.046-8.954-20-20-20h-51c-11.046 0-20 8.954-20 20v51c0 11.046 8.954 20 20 20h51z"  horiz-adv-x="1024" />

    
    <glyph glyph-name="dingdanzhongxin" unicode="&#58921;" d="M518 830c48.601 0 88-39.399 88-88v-41c0-48.601-39.399-88-88-88H308c-48.601 0-88 39.399-88 88v41c0 48.601 39.399 88 88 88h210z m0-54H308c-18.59 0-33.695-14.92-33.995-33.438L274 742v-41c0-18.59 14.92-33.695 33.438-33.995L308 667h210c18.59 0 33.695 14.92 33.995 33.438L552 701v41c0 18.59-14.92 33.695-33.438 33.995L518 776zM247.262 761c14.912 0 27-12.088 27-27 0-14.763-11.847-26.758-26.553-26.996l-0.447-0.004H181c-33.548 0-60.457-25.703-60.992-57.163l-0.008-0.955v-597.764c0-31.574 26.574-57.593 59.985-58.11L181-7h331c14.912 0 27-12.088 27-27 0-14.763-11.848-26.758-26.554-27H181c-62.682 0-113.965 48.997-114.985 110.258l-0.015 1.86V648.882c0 61.504 50.656 111.117 113.104 112.103L181 761h66.262zM646 761c62.682 0 113.965-48.997 114.985-110.258l0.015-1.86v-197.92c0-14.912-12.088-27-27-27-14.763 0-26.758 11.847-26.996 26.553l-0.004 0.446v197.92c0 31.575-26.574 57.594-59.985 58.111L646 707h-66.128c-14.912 0-27 12.088-27 27 0 14.763 11.848 26.758 26.553 26.996l0.447 0.004H646zM725.498 260C675.046 260 634 218.95 634 168.498S675.046 77 725.498 77C775.954 77 817 118.046 817 168.498 816.995 218.954 775.95 260 725.498 260z m0.002-151c-32.809 0-59.5 26.691-59.5 59.5s26.691 59.5 59.5 59.5 59.5-26.691 59.5-59.5-26.691-59.5-59.5-59.5z m219.759 22.769l-29.573 17.1a194.27 194.27 0 0 1 0.997 19.631c0 6.545-0.335 13.122-0.997 19.63l29.573 17.101c11.215 6.486 15.074 20.902 8.598 32.135l-54.629 94.768c-6.476 11.233-20.87 15.093-32.085 8.612l-29.573-17.1a190.46 190.46 0 0 1-33.95 19.666v34.165c0 12.972-10.535 23.523-23.491 23.523H670.87c-12.952 0-23.487-10.556-23.487-23.523v-34.17a190.779 190.779 0 0 1-33.949-19.666l-29.578 17.1c-11.215 6.486-25.609 2.626-32.085-8.611l-54.63-94.764c-6.475-11.233-2.616-25.649 8.6-32.135l29.572-17.1a194.337 194.337 0 0 1-0.997-19.631c0-6.54 0.335-13.122 0.997-19.63l-29.573-17.101c-11.215-6.486-15.074-20.902-8.598-32.14l54.629-94.763c6.476-11.237 20.87-15.098 32.085-8.612l29.578 17.1a190.873 190.873 0 0 1 33.95-19.662v-34.169c0-12.972 10.534-23.523 23.486-23.523H780.13c12.952 0 23.491 10.556 23.491 23.523v34.17a191.033 191.033 0 0 1 33.95 19.662l29.573-17.1c11.22-6.487 25.614-2.626 32.085 8.61l54.63 94.765c6.475 11.237 2.62 25.648-8.6 32.139z m-78.531-95.344l-25.367 14.686c-7.753 4.483-17.328 3.853-24.398-1.614a148.745 148.745 0 0 0-34.13-19.795c-8.242-3.41-13.571-11.407-13.571-20.37V-20H682.73v29.332c0 8.963-5.325 16.96-13.567 20.37a148.9 148.9 0 0 0-34.13 19.795c-7.07 5.467-16.65 6.102-24.398 1.614l-25.367-14.686L542 111.577l25.358 14.68a21.986 21.986 0 0 1 10.81 21.955 151.522 151.522 0 0 0-1.294 19.79c0 6.613 0.437 13.272 1.295 19.79a21.975 21.975 0 0 1-10.811 21.954L542 224.427l43.268 75.152 25.367-14.685c7.749-4.488 17.324-3.854 24.398 1.613a148.9 148.9 0 0 0 34.13 19.795c8.242 3.41 13.571 11.407 13.571 20.37V356h86.536v-29.328c0-8.963 5.325-16.96 13.57-20.37a148.835 148.835 0 0 0 34.131-19.795c7.07-5.463 16.645-6.097 24.394-1.613l25.367 14.685L910 224.427l-25.358-14.68a21.988 21.988 0 0 1-10.81-21.959 151.474 151.474 0 0 0 1.294-19.79c0-6.613-0.433-13.268-1.295-19.79a21.972 21.972 0 0 1 10.811-21.954L910 111.573l-43.272-75.148zM436 175c14.912 0 27-12.088 27-27s-12.088-27-27-27H235c-14.912 0-27 12.088-27 27s12.088 27 27 27h201z m0 175c14.912 0 27-12.088 27-27s-12.088-27-27-27H235c-14.912 0-27 12.088-27 27s12.088 27 27 27h201z m101 175c14.912 0 27-12.088 27-27s-12.088-27-27-27H235c-14.912 0-27 12.088-27 27s12.088 27 27 27h302z"  horiz-adv-x="1024" />

    
    <glyph glyph-name="guanbi" unicode="&#58922;" d="M910.772574 820.919321c10.533713 10.533713 27.613034 10.533713 38.146747 0 10.533713-10.534712 10.533713-27.613034 0-38.146747L550.145748 384l398.773573-398.773573c10.533713-10.533713 10.533713-27.613034 0-38.146747-10.534712-10.533713-27.613034-10.533713-38.146747 0L511.999001 345.854252 113.229424-52.919321c-10.429815-10.427817-27.273366-10.532714-37.829057-0.312695l-0.318689 0.312695c-10.533713 10.534712-10.533713 27.613034 0 38.146747l398.772574 398.773573L75.080679 782.770576c-10.533713 10.534712-10.533713 27.613034 0 38.147746 10.534712 10.533713 27.613034 10.533713 38.146747 0L512 422.146747z"  horiz-adv-x="1024" />

    
    <glyph glyph-name="fenlei" unicode="&#58923;" d="M870 366c48.601 0 88-39.399 88-88v-252c0-48.601-39.399-88-88-88H618c-48.601 0-88 39.399-88 88V278c0 48.601 39.399 88 88 88h252z m0-54H618c-18.59 0-33.695-14.92-33.995-33.438L584 278v-252c0-18.59 14.92-33.695 33.438-33.995L618-8h252c18.59 0 33.695 14.92 33.995 33.438L904 26V278c0 18.59-14.92 33.695-33.438 33.995L870 312zM406 366c48.601 0 88-39.399 88-88v-252c0-48.601-39.399-88-88-88H154c-48.601 0-88 39.399-88 88V278c0 48.601 39.399 88 88 88h252z m0-54H154c-18.59 0-33.695-14.92-33.995-33.438L120 278v-252c0-18.59 14.92-33.695 33.438-33.995L154-8h252c18.59 0 33.695 14.92 33.995 33.438L440 26V278c0 18.59-14.92 33.695-33.438 33.995L406 312zM870 830c48.601 0 88-39.399 88-88v-252c0-48.601-39.399-88-88-88H618c-48.601 0-88 39.399-88 88V742c0 48.601 39.399 88 88 88h252z m0-54H618c-18.59 0-33.695-14.92-33.995-33.438L584 742v-252c0-18.59 14.92-33.695 33.438-33.995L618 456h252c18.59 0 33.695 14.92 33.995 33.438L904 490V742c0 18.59-14.92 33.695-33.438 33.995L870 776zM262 830c108.248 0 196-87.528 196-195.5 0-40.24-12.189-77.642-33.085-108.73l78.463-78.464c10.544-10.544 10.544-27.64 0-38.184-10.544-10.544-27.64-10.544-38.184 0l-76.341 76.34C354.665 456.484 310.38 439 262 439c-108.248 0-196 87.528-196 195.5S153.752 830 262 830z m0-54c-78.455 0-142-63.383-142-141.5 0-78.117 63.545-141.5 142-141.5 33.88 0 65.785 11.795 91.169 33.01l0.767 0.645 15.127 12.823 11.035 16.416c15.342 22.826 23.715 49.552 23.899 77.658l0.003 0.948c0 78.117-63.545 141.5-142 141.5z"  horiz-adv-x="1024" />

    
    <glyph glyph-name="renwuguanli" unicode="&#58924;" d="M870 830c48.601 0 88-39.399 88-88v-716c0-48.601-39.399-88-88-88H154c-48.601 0-88 39.399-88 88V742c0 48.601 39.399 88 88 88h716z m0-54H154c-18.59 0-33.695-14.92-34-33.438V26c0-18.59 14.92-33.695 33.438-34H870c18.59 0 33.695 14.92 34 33.438V742c0 18.59-14.92 33.695-33.438 34H870zM768 244c14.912 0 27-12.088 27-27s-12.088-27-27-27H484c-14.912 0-27 12.088-27 27s12.088 27 27 27h284z m0 334c14.912 0 27-12.088 27-27s-12.088-27-27-27H484c-14.912 0-27 12.088-27 27s12.088 27 27 27h284zM300 333c64.065 0 116-51.935 116-116s-51.935-116-116-116-116 51.935-116 116 51.935 116 116 116z m0-54c-34.242 0-62-27.758-62-62 0-34.242 27.758-62 62-62 34.242 0 62 27.758 62 62 0 34.242-27.758 62-62 62zM376.143 636.792c10.31 10.774 27.4 11.15 38.175 0.841 10.666-10.206 11.142-27.06 1.147-37.85l-0.306-0.324-126.895-132.612c-0.195-0.204-0.393-0.406-0.594-0.605-12.804-12.712-33.41-12.764-46.28-0.214l-0.388 0.384-55.163 55.566c-10.506 10.582-10.444 27.677 0.139 38.183 10.476 10.4 27.336 10.444 37.866 0.176l0.317-0.315 39.983-40.274 112 117.044z"  horiz-adv-x="1024" />

    
    <glyph glyph-name="kucunguanli" unicode="&#58925;" d="M959 525v-501c0-48.601-39.399-88-88-88H154c-48.601 0-88 39.399-88 88V525h893z m-54-54H120v-447c0-18.59 14.92-33.695 33.438-34H871c18.59 0 33.695 14.92 34 33.438V471zM236.624 829.245h554.683l166.067-304.557-47.41-25.851-150.719 276.408H268.242L112.982 498.55 65.89 524.975zM680 411c14.912 0 27-12.088 27-27s-12.088-27-27-27H344c-14.912 0-27 12.088-27 27s12.088 27 27 27h336zM513 829c14.912 0 27-12.088 27-27v-297c0-14.912-12.088-27-27-27s-27 12.088-27 27V802c0 14.912 12.088 27 27 27z"  horiz-adv-x="1024" />

    
    <glyph glyph-name="kuneizuoye" unicode="&#58926;" d="M871 366c48.601 0 88-39.399 88-88v-252c0-48.601-39.399-88-88-88H619c-48.601 0-88 39.399-88 88V278c0 48.601 39.399 88 88 88h252z m0-54H619c-18.59 0-33.695-14.92-33.995-33.438L585 278v-252c0-18.59 14.92-33.695 33.438-33.995L619-8h252c18.59 0 33.695 14.92 33.995 33.438L905 26V278c0 18.59-14.92 33.695-33.438 33.995L871 312zM407 366c48.601 0 88-39.399 88-88v-252c0-48.601-39.399-88-88-88H155c-48.601 0-88 39.399-88 88V278c0 48.601 39.399 88 88 88h252z m0-54H155c-18.59 0-33.695-14.92-33.995-33.438L121 278v-252c0-18.59 14.92-33.695 33.438-33.995L155-8h252c18.59 0 33.695 14.92 33.995 33.438L441 26V278c0 18.59-14.92 33.695-33.438 33.995L407 312zM871 830c48.601 0 88-39.399 88-88v-252c0-48.601-39.399-88-88-88H619c-48.601 0-88 39.399-88 88V742c0 48.601 39.399 88 88 88h252z m0-54H619c-18.59 0-33.695-14.92-33.995-33.438L585 742v-252c0-18.59 14.92-33.695 33.438-33.995L619 456h252c18.59 0 33.695 14.92 33.995 33.438L905 490V742c0 18.59-14.92 33.695-33.438 33.995L871 776zM302.69 498.194c-2.499-9.975-15.21-31.707-35.34-60.993 5.477-1.25 10.796-2.74 16.114-3.697 9.84-1.783 19.679-3.192 29.412-4.948 3.27-0.585 4.893 0.585 6.595 3.112 19.732 29.286 35.554 60.568 48.877 93.18 5.16 12.714 9.6 25.8 14.467 38.755 0.452 1.33 0.984 2.66 1.489 4.203a5156.98 5156.98 0 0 0 31.645-10.96c-1.914-5.692-3.616-11.012-5.53-16.332-16.196-44.953-36.38-88.018-63.212-127.705-2.207-3.325-4.733-6.437-6.94-9.709-5.027-7.687-12.127-10.055-21.009-9.15a387.61 387.61 0 0 0-99.43 23.088c-58.424 22.025-108.685 55.674-148.52 104.192-4.734 5.825-6.144 12.182-3.032 19.072 3.031 6.596 8.802 9.549 15.876 9.708a256.827 256.827 0 0 1 87.836 17.157c25.582 9.63 48.957 23.01 66.907 44.236 5.185 6.144 9.414 13.14 14.36 20.003l29.225-16.466c-5.425-7.9-10.238-15.747-15.929-22.902-13.881-17.53-31.432-30.909-50.792-41.708-29.358-16.333-60.977-25.67-93.899-30.99-0.975-0.237-1.96-0.432-2.952-0.584 4.734-4.31 8.723-8.3 13.164-11.837 8.137-6.65 16.408-13.167 24.917-19.391 1.702-1.17 4.574-1.703 6.595-1.17 16.94 3.776 32.39 10.506 45.394 22.636-1.037-5.906-11.727-21.014-26.752-37.719 9.467-4.735 18.907-8.858 27.79-14.044 11.54-6.73 22.47-4.895 33.719 0 19.067 8.219 35.341 20.561 51.005 33.861 2.5 2.208 5 4.416 7.95 7.102z m123.391 86.822c-53.451 23.807-106.53 47.347-159.902 71.154 4.441 10.268 11.302 18.088 20.69 23.594a50.993 50.993 0 0 0 48.664 3.032c21.354-9.336 42.734-18.673 63.876-28.461 24.837-11.545 36.538-37.373 28.986-63.122-0.585-1.994-1.49-3.91-2.314-6.197z m-23.72 93.179l-50.048 22.29c-0.372 0.186-0.585 0.559-1.117 1.011 0.665 1.25 1.17 2.5 1.915 3.724 20.769 39.048 41.564 78.044 62.386 117.092 3.484 6.517 7.553 8.512 15.078 7.395a26.511 26.511 0 0 0 17.18-9.363 11.307 11.307 0 0 0 2.074-11.917c-15.53-42.799-30.981-85.571-46.431-128.317-0.213-0.532-0.532-0.958-1.038-1.915z"  horiz-adv-x="1024" />

    
    <glyph glyph-name="jichuguanli" unicode="&#58927;" d="M871 366c48.601 0 88-39.399 88-88v-252c0-48.601-39.399-88-88-88H619c-48.601 0-88 39.399-88 88V278c0 48.601 39.399 88 88 88h252z m0-54H619c-18.59 0-33.695-14.92-33.995-33.438L585 278v-252c0-18.59 14.92-33.695 33.438-33.995L619-8h252c18.59 0 33.695 14.92 33.995 33.438L905 26V278c0 18.59-14.92 33.695-33.438 33.995L871 312zM407 366c48.601 0 88-39.399 88-88v-252c0-48.601-39.399-88-88-88H155c-48.601 0-88 39.399-88 88V278c0 48.601 39.399 88 88 88h252z m0-54H155c-18.59 0-33.695-14.92-33.995-33.438L121 278v-252c0-18.59 14.92-33.695 33.438-33.995L155-8h252c18.59 0 33.695 14.92 33.995 33.438L441 26V278c0 18.59-14.92 33.695-33.438 33.995L407 312zM871 830c48.601 0 88-39.399 88-88v-252c0-48.601-39.399-88-88-88H619c-48.601 0-88 39.399-88 88V742c0 48.601 39.399 88 88 88h252z m0-54H619c-18.59 0-33.695-14.92-33.995-33.438L585 742v-252c0-18.59 14.92-33.695 33.438-33.995L619 456h252c18.59 0 33.695 14.92 33.995 33.438L905 490V742c0 18.59-14.92 33.695-33.438 33.995L871 776zM282.498 706C232.046 706 191 664.95 191 614.498S232.046 523 282.498 523C332.954 523 374 564.046 374 614.498 373.995 664.954 332.95 706 282.498 706zM282 560c-30.327 0-55 24.673-55 55s24.673 55 55 55 55-24.673 55-55-24.673-55-55-55z m202.172 22.192l-27.274 15.74c0.612 6.003 0.92 12.033 0.92 18.068 0 6.024-0.31 12.078-0.92 18.068l27.274 15.74c10.343 5.97 13.902 19.24 7.93 29.578l-50.382 87.228c-5.972 10.339-19.248 13.892-29.59 7.926l-27.274-15.74a175.735 175.735 0 0 1-31.31 18.102V808.35c0 11.94-9.716 21.651-21.665 21.651H231.118c-11.945 0-21.66-9.716-21.66-21.651v-31.45a176.03 176.03 0 0 1-31.31-18.103l-27.278 15.74c-10.343 5.97-23.618 2.417-29.59-7.926l-50.382-87.224c-5.973-10.339-2.414-23.608 7.93-29.578l27.273-15.74c-0.61-5.99-0.92-12.044-0.92-18.068 0-6.02 0.31-12.078 0.92-18.068l-27.274-15.74c-10.343-5.97-13.902-19.24-7.93-29.582l50.382-87.224c5.973-10.343 19.248-13.896 29.59-7.926l27.279 15.74a176.117 176.117 0 0 1 31.31-18.098v-31.45c0-11.94 9.715-21.652 21.66-21.652h100.763c11.945 0 21.665 9.716 21.665 21.651v31.45a176.265 176.265 0 0 1 31.31 18.099l27.273-15.74c10.348-5.97 23.623-2.417 29.591 7.926l50.382 87.224c5.972 10.343 2.417 23.608-7.93 29.582z m-82.095-78.32l-21.644 12.459c-6.616 3.804-14.786 3.269-20.818-1.37a127.095 127.095 0 0 0-29.122-16.793 18.629 18.629 0 0 1-11.58-17.282V456H245.08v24.886a18.626 18.626 0 0 1-11.576 17.282 127.228 127.228 0 0 0-29.122 16.794c-6.032 4.638-14.206 5.176-20.818 1.369l-21.644-12.46L125 567.631l21.637 12.455c6.598 3.796 10.217 11.108 9.224 18.625a127.832 127.832 0 0 0-1.105 16.79c0 5.61 0.373 11.26 1.105 16.791 0.997 7.518-2.623 14.826-9.224 18.626L125 663.373l36.919 63.76 21.644-12.46c6.612-3.808 14.782-3.27 20.818 1.37a127.228 127.228 0 0 0 29.122 16.793 18.629 18.629 0 0 1 11.58 17.282V775h73.838v-24.882a18.623 18.623 0 0 1 11.58-17.282 127.172 127.172 0 0 0 29.121-16.794c6.033-4.635 14.203-5.173 20.815-1.369l21.644 12.46L439 663.372l-21.637-12.455c-6.601-3.8-10.217-11.112-9.224-18.63a127.79 127.79 0 0 0 1.105-16.79c0-5.61-0.37-11.256-1.105-16.79-0.997-7.518 2.623-14.83 9.224-18.626L439 567.627l-36.923-63.756z"  horiz-adv-x="1024" />

    
    <glyph glyph-name="xiala" unicode="&#58928;" d="M74.353 570.092c10.544 10.544 27.64 10.544 38.183 0L512.46 170.169l399.924 399.923c10.544 10.544 27.64 10.544 38.183 0 10.545-10.544 10.545-27.64 0-38.184L531.252 112.594c-10.544-10.544-27.64-10.544-38.184 0a27.163 27.163 0 0 0-3.086 3.685l-415.63 415.63c-10.544 10.543-10.544 27.639 0 38.183z"  horiz-adv-x="1024" />

    
    <glyph glyph-name="rukuguanli" unicode="&#58929;" d="M469.051 814.542c25.147 19.074 59.827 19.239 85.136 0.509l0.764-0.573 391.538-297.91c11.867-9.03 14.168-25.97 5.139-37.837-8.94-11.748-25.632-14.12-37.48-5.406l-0.357 0.268-391.539 297.91a17 17 0 0 1-20.256 0.246l-0.311-0.23-392.814-297.95c-11.88-9.012-28.817-6.686-37.829 5.195-8.921 11.761-6.73 28.478 4.842 37.556l0.353 0.272 392.814 297.95zM179 577c14.763 0 26.758-11.848 26.996-26.554L206 550v-498.877c0-33.352 26.767-60.453 59.991-60.992l1.009-0.008h207.758c14.911 0 27-12.088 27-27 0-14.762-11.848-26.758-26.554-27H267c-62.878 0-113.97 50.463-114.985 113.099l-0.015 1.901V550c0 14.912 12.088 27 27 27z m666.047 0c14.763 0 26.758-11.848 26.996-26.554l0.004-0.446v-190.635c0-14.912-12.088-27-27-27-14.763 0-26.758 11.848-26.996 26.554l-0.004 0.446V550c0 14.912 12.088 27 27 27zM697.188-64a36.611 36.611 0 0 1 16.406 3.87 36.638 36.638 0 0 1 20.281 32.773V82.57h183.438c20.258 0 36.687 16.41 36.687 36.643V265.786c0 20.233-16.43 36.642-36.687 36.642H733.875V412.357a36.638 36.638 0 0 1-20.28 32.774 36.725 36.725 0 0 1-38.42-3.46l-293.5-219.857a36.619 36.619 0 0 1 0-58.628l293.5-219.857A36.734 36.734 0 0 1 697.188-64zM908 141.983H730.232c-23.533 0-42.618-18.439-42.618-41.175V-4L425 192.212 687.614 383v-100.515c0-22.736 19.085-41.175 42.618-41.175H908v-99.327zM309 283c11.046 0 20-8.954 20-20v-51c0-11.046-8.954-20-20-20h-51c-11.046 0-20 8.954-20 20v51c0 11.046 8.954 20 20 20h51z m0 135c11.046 0 20-8.954 20-20v-52c0-11.046-8.954-20-20-20h-51c-11.046 0-20 8.954-20 20v52c0 11.046 8.954 20 20 20h51z m143 0c11.046 0 20-8.954 20-20v-52c0-11.046-8.954-20-20-20h-52c-11.046 0-20 8.954-20 20v52c0 11.046 8.954 20 20 20h52zM309 557c11.046 0 20-8.954 20-20v-51c0-11.046-8.954-20-20-20h-51c-11.046 0-20 8.954-20 20v51c0 11.046 8.954 20 20 20h51z m143 0c11.046 0 20-8.954 20-20v-51c0-11.046-8.954-20-20-20h-52c-11.046 0-20 8.954-20 20v51c0 11.046 8.954 20 20 20h52z m142 0c11.046 0 20-8.954 20-20v-51c0-11.046-8.954-20-20-20h-51c-11.046 0-20 8.954-20 20v51c0 11.046 8.954 20 20 20h51z"  horiz-adv-x="1024" />

    
    <glyph glyph-name="shangpinjichuxinxi" unicode="&#58930;" d="M767.845 604c50.126 0 94.957-48.341 104.672-106.717l16.913-101.614c2.448-14.709-7.492-28.618-22.201-31.066-14.71-2.448-28.618 7.491-31.067 22.2l-16.912 101.614c-5.697 34.228-30.303 61.042-50.785 61.575l-0.62 0.008H246.854c-20.397 0-45.15-26.472-51.226-60.548l-0.179-1.035-73.847-443.7c-4.964-29.821 13.441-52.264 42.604-52.71l0.887-0.007h342.257c14.912 0 27-12.088 27-27 0-14.763-11.847-26.758-26.553-27H165.092c-62.62 0-106.334 51.706-97.056 113.701l0.297 1.882 73.848 443.7c9.619 57.792 53.653 105.75 103.17 106.703l1.502 0.014h520.993zM512 829C618.231 829 704.265 746.76 705.975 645l0.026-3.09v-232.454c0-14.06-12.088-25.456-27-25.456-14.762 0-26.758 11.17-26.996 25.035l-0.004 0.42V641.91c0 75.357-62.84 136.179-140 136.179-76.387 0-138.742-59.612-139.981-133.923l-0.019-2.256v-232.454c0-14.06-12.088-25.456-27-25.456-14.762 0-26.758 11.17-27 25.035V641.91c0 103.18 86.696 187.09 194 187.09zM636 190m27 0l0 0q27 0 27-27l0-198q0-27-27-27l0 0q-27 0-27 27l0 198q0 27 27 27ZM770 347m27 0l0 0q27 0 27-27l0-355q0-27-27-27l0 0q-27 0-27 27l0 355q0 27 27 27ZM904 270m27 0l0 0q27 0 27-27l0-278q0-27-27-27l0 0q-27 0-27 27l0 278q0 27 27 27Z"  horiz-adv-x="1024" />

    
    <glyph glyph-name="xinxi" unicode="&#58931;" d="M512 828c245.214 0 444-198.786 444-444S757.214-60 512-60 68 138.786 68 384 266.786 828 512 828z m0-54c-215.391 0-390-174.609-390-390s174.609-390 390-390 390 174.609 390 390-174.609 390-390 390zM513.5 504c22.92 0 41.5-18.58 41.5-41.5v-327c0-22.92-18.58-41.5-41.5-41.5S472 112.58 472 135.5v327c0 22.92 18.58 41.5 41.5 41.5z m-0.5 170c23.196 0 42-18.804 42-42s-18.804-42-42-42-42 18.804-42 42 18.804 42 42 42z"  horiz-adv-x="1024" />

    
    <glyph glyph-name="xiayige" unicode="&#58932;" d="M340.235739-54.179091c-10.533713 10.533713-10.533713 27.613034 0 38.146748l399.532831 399.531832-399.532831 399.53383c-10.533713 10.533713-10.533713 27.613034 0 38.146747 10.534712 10.533713 27.613034 10.533713 38.146747 0l418.904913-418.904913c10.534712-10.534712 10.534712-27.613034 0-38.146747a27.1365 27.1365 0 0 0-3.681405-3.083988L378.382486-54.179091c-10.533713-10.533713-27.613034-10.533713-38.146747 0z"  horiz-adv-x="1024" />

    
    <glyph glyph-name="shangpinguanli" unicode="&#58933;" d="M767.845 604c50.126 0 94.956-48.341 104.672-106.717l16.912-101.614c2.449-14.709-7.491-28.618-22.2-31.066-14.71-2.448-28.619 7.491-31.067 22.2L819.25 488.418c-5.697 34.228-30.303 61.042-50.785 61.575l-0.62 0.008H246.853c-20.397 0-45.15-26.472-51.226-60.548l-0.179-1.035-73.847-443.7c-4.964-29.821 13.44-52.264 42.604-52.71l0.887-0.007h342.257c14.912 0 27-12.088 27-27 0-14.763-11.848-26.758-26.553-27H165.092c-62.62 0-106.334 51.706-97.056 113.701l0.297 1.882 73.848 443.7c9.619 57.792 53.653 105.75 103.17 106.703l1.502 0.014h520.992zM512 829c106.231 0 192.264-82.24 193.974-184l0.026-3.09v-232.454c0-14.06-12.088-25.456-27-25.456-14.763 0-26.758 11.17-26.996 25.035l-0.004 0.42V641.91c0 75.357-62.841 136.179-140 136.179-76.387 0-138.742-59.612-139.981-133.923L372 641.91v-232.454c0-14.06-12.088-25.456-27-25.456-14.763 0-26.758 11.17-27 25.035V641.91C318 745.09 404.696 829 512 829zM761.998 219C715.13 219 677 180.866 677 133.998 677 87.13 715.13 49 761.998 49 808.87 49 847 87.13 847 133.998 846.996 180.87 808.866 219 761.998 219z m-0.284-136.397C733.2 82.603 710 105.794 710 134.3S733.199 186 761.714 186c28.516 0 51.714-23.192 51.714-51.699 0-28.507-23.198-51.698-51.714-51.698z m186.066 25.484l-25.74 14.858c0.577 5.666 0.867 11.359 0.868 17.055 0 5.686-0.292 11.4-0.868 17.055l25.74 14.858c9.762 5.635 13.121 18.16 7.484 27.919l-47.55 82.336c-5.636 9.76-18.165 13.113-27.927 7.482l-25.74-14.857a165.852 165.852 0 0 1-29.55 17.087v29.683c0 11.27-9.17 20.437-20.448 20.437h-95.1c-11.273 0-20.443-9.17-20.443-20.437v-29.687a166.13 166.13 0 0 1-29.55-17.087l-25.744 14.857c-9.762 5.635-22.29 2.281-27.928-7.482l-47.55-82.332c-5.636-9.76-2.277-22.284 7.485-27.92l25.74-14.857a168.537 168.537 0 0 1-0.868-17.055c0-5.682 0.292-11.4 0.869-17.055l-25.741-14.858c-9.762-5.635-13.121-18.16-7.484-27.923l47.55-82.332c5.636-9.763 18.165-13.117 27.927-7.482l25.745 14.857a166.212 166.212 0 0 1 29.55-17.083v-29.687c0-11.27 9.17-20.437 20.443-20.437h95.1c11.273 0 20.447 9.17 20.447 20.437v29.687a166.352 166.352 0 0 1 29.55 17.083l25.74-14.857c9.766-5.635 22.295-2.281 27.928 7.482l47.55 82.332c5.636 9.763 2.281 22.284-7.485 27.923z m-78.468-73.917l-20.335 11.756c-6.215 3.59-13.891 3.085-19.558-1.291a119.278 119.278 0 0 0-27.36-15.847c-6.607-2.73-10.879-9.131-10.879-16.306V-11h-69.367v23.482c0 7.175-4.268 13.576-10.875 16.306a119.402 119.402 0 0 0-27.36 15.847c-5.667 4.376-13.346 4.884-19.558 1.291l-20.335-11.756L609 94.331l20.328 11.753a17.593 17.593 0 0 1 8.666 17.575 121.135 121.135 0 0 0-1.038 15.843c0 5.293 0.35 10.624 1.038 15.843a17.584 17.584 0 0 1-8.666 17.574L609 184.672l34.685 60.161 20.335-11.756c6.212-3.593 13.887-3.085 19.558 1.292a119.402 119.402 0 0 0 27.36 15.846c6.607 2.73 10.879 9.132 10.879 16.307V290h69.37v-23.478c0-7.175 4.268-13.576 10.878-16.307a119.35 119.35 0 0 0 27.36-15.846c5.668-4.373 13.343-4.881 19.555-1.292l20.335 11.756L904 184.672l-20.328-11.753a17.595 17.595 0 0 1-8.666-17.578 121.096 121.096 0 0 0 1.038-15.843c0-5.293-0.347-10.62-1.038-15.843a17.582 17.582 0 0 1 8.666-17.574L904 94.328l-34.688-60.158z"  horiz-adv-x="1024" />

    
    <glyph glyph-name="xitongguanli" unicode="&#58934;" d="M512.5 559.441c-96.682 0-175.339-78.711-175.339-175.45 0-96.738 78.657-175.44 175.338-175.44 96.69 0 175.347 78.702 175.347 175.44-0.01 96.747-78.666 175.45-175.347 175.45z m0-289.588c-62.905 0-114.08 51.206-114.08 114.147s51.175 114.147 114.08 114.147c62.903 0 114.078-51.206 114.078-114.147S575.403 269.853 512.5 269.853z m421.956 43.687l-56.783 32.803A372.315 372.315 0 0 1 879.589 384c0 12.555-0.645 25.171-1.916 37.657l56.783 32.803c21.534 12.442 28.944 40.097 16.51 61.644L846.073 697.896c-12.435 21.547-40.073 28.953-61.607 16.52l-56.783-32.804a365.783 365.783 0 0 1-65.185 37.727v65.537C662.498 809.76 642.27 830 617.392 830H407.606c-24.869 0-45.097-20.249-45.097-45.124v-65.546a366.396 366.396 0 0 1-65.185-37.727l-56.792 32.804c-21.534 12.442-49.172 5.036-61.607-16.52L74.033 516.105c-12.435-21.547-5.025-49.202 16.51-61.644l56.782-32.803A372.445 372.445 0 0 1 145.41 384c0-12.546 0.645-25.171 1.916-37.657L90.542 313.54c-21.534-12.442-28.944-40.097-16.51-61.652l104.893-181.784c12.435-21.556 40.073-28.962 61.607-16.52l56.792 32.804a366.577 366.577 0 0 1 65.185-37.718v-65.546c0-24.884 20.228-45.124 45.097-45.124h209.786c24.869 0 45.106 20.249 45.106 45.124V48.67a366.884 366.884 0 0 1 65.185 37.718l56.783-32.804c21.543-12.442 49.181-5.036 61.607 16.52l104.893 181.784c12.434 21.555 5.033 49.2-16.51 61.652zM805.928 110.203l-52.801 30.503c-16.14 9.313-36.07 8.004-50.786-3.352-21.804-16.821-45.703-30.663-71.043-41.116-17.155-7.084-28.248-23.694-28.248-42.31V-7H422.932v60.927c0 18.617-11.083 35.227-28.239 42.31-25.34 10.463-49.239 24.296-71.043 41.117-14.716 11.356-34.656 12.674-50.786 3.352l-52.8-30.503L130 266.302l52.783 30.494c16.095 9.296 24.924 27.196 22.503 45.6a314.077 314.077 0 0 0-2.696 41.108c0 13.735 0.91 27.568 2.696 41.108 2.43 18.405-6.4 36.296-22.503 45.6L130 500.707l90.064 156.1 52.8-30.504c16.13-9.322 36.061-8.004 50.786 3.352 21.804 16.821 45.703 30.654 71.043 41.116 17.156 7.084 28.248 23.694 28.248 42.31V774h180.127v-60.918c0-18.617 11.083-35.227 28.248-42.31a309.96 309.96 0 0 0 71.043-41.117c14.716-11.347 34.647-12.665 50.777-3.352l52.8 30.503L896 500.707l-52.783-30.495c-16.104-9.304-24.924-27.204-22.503-45.609a313.977 313.977 0 0 0 2.696-41.107c0-13.735-0.902-27.559-2.696-41.108-2.43-18.405 6.4-36.305 22.503-45.6L896 266.293l-90.072-156.09z"  horiz-adv-x="1024" />

    
    <glyph glyph-name="yichang" unicode="&#58935;" d="M512.5 669.781c157.88 0 283.956-150.365 286.462-334.818l0.038-5.6V-25c0-14.912-12.088-27-27-27-14.763 0-26.758 11.848-26.996 26.554L745-25V329.363c0 159.192-105.34 286.418-232.5 286.418-125.89 0-230.391-124.694-232.468-281.652l-0.032-4.766V-25c0-14.912-12.088-27-27-27-14.763 0-26.758 11.848-27 26.554V329.363c0 187 127.025 340.418 286.5 340.418zM931-9c14.912 0 27-12.088 27-27s-12.088-27-27-27H93c-14.912 0-27 12.088-27 27s12.088 27 27 27h838z m0 228c14.912 0 27-12.088 27-27s-12.088-27-27-27h-88c-14.912 0-27 12.088-27 27s12.088 27 27 27h88z m-750 0c14.912 0 27-12.088 27-27s-12.088-27-27-27H93c-14.912 0-27 12.088-27 27s12.088 27 27 27h88z m744.488 389.5c7.456-12.914 3.031-29.427-9.883-36.883l-76.21-44c-12.914-7.456-29.427-3.03-36.883 9.883-7.456 12.914-3.031 29.427 9.883 36.883l76.21 44c12.914 7.456 29.427 3.03 36.883-9.883z m-789.482 10.103l0.389-0.22 76.21-44c12.914-7.456 17.339-23.97 9.883-36.883-7.381-12.785-23.64-17.25-36.494-10.103l-0.389 0.22-76.21 44c-12.914 7.456-17.339 23.97-9.883 36.883 7.381 12.785 23.64 17.25 36.494 10.103zM512 830c14.912 0 27-12.088 27-27v-88c0-14.912-12.088-27-27-27s-27 12.088-27 27V803c0 14.912 12.088 27 27 27zM553.434 499.947c10.711 10.375 27.804 10.101 38.179-0.61 10.27-10.604 10.105-27.463-0.292-37.866l-0.318-0.313L458.68 333H595.72c22.964 0 41.623-18.43 41.994-41.305l0.006-0.695a42 42 0 0 0-9.865-27.043l-0.37-0.434L456.76 66.159c-9.756-11.278-26.807-12.512-38.084-2.756-11.165 9.658-12.486 26.466-3.046 37.744l0.29 0.34L569.471 279H429.044a42 42 0 0 0-29.771 12.374l-0.398 0.406c-15.977 16.495-15.72 42.72 0.454 58.902l0.495 0.487 153.61 148.778z"  horiz-adv-x="1024" />

    
    <glyph glyph-name="shangyige" unicode="&#58936;" d="M684.382658-54.179091c10.534712 10.533713 10.534712 27.613034 0 38.146748L284.851824 383.499489 684.381659 783.033319c10.534712 10.533713 10.534712 27.613034 0 38.146747-10.533713 10.533713-27.613034 10.533713-38.145749 0L227.330997 402.275153c-10.533713-10.534712-10.533713-27.613034 0-38.146747a27.1365 27.1365 0 0 1 3.681405-3.083988l415.224507-415.223509c10.533713-10.533713 27.613034-10.533713 38.145749 0z"  horiz-adv-x="1024" />

    


  </font>
</defs>
</svg>
