<svg width="94" height="19" viewBox="0 0 94 19" fill="none" xmlns="http://www.w3.org/2000/svg">
<path d="M17.7746 0.818057C17.7746 0.712502 17.8172 0.642131 17.9024 0.606945C17.9877 0.554167 18.2647 0.527778 18.7336 0.527778C19.2025 0.510185 19.8419 0.50139 20.6517 0.50139V18.657C20.6517 18.7801 20.6091 18.8593 20.5239 18.8945C20.4386 18.9296 20.1616 18.956 19.6927 18.9736C19.2238 18.9736 18.5844 18.9736 17.7746 18.9736V14.2236V9.47361H2.87718V18.657C2.87718 18.7801 2.83455 18.8593 2.7493 18.8945C2.66405 18.9296 2.38699 18.956 1.91812 18.9736C1.44924 18.9736 0.809872 18.9736 0 18.9736V0.818057C0 0.694908 0.0426248 0.615742 0.127875 0.580557C0.213124 0.545371 0.490186 0.527778 0.959059 0.527778C1.42793 0.510185 2.0673 0.50139 2.87718 0.50139V8.3125H17.7746V0.818057Z" fill="#9A0041"/>
<path d="M71.1134 0.422222V18.5778C71.1134 18.7009 71.0708 18.7801 70.9856 18.8153C70.9003 18.8505 70.6233 18.8769 70.1544 18.8945C69.6855 18.8945 69.0461 18.8945 68.2363 18.8945L68.3002 10.8194L68.6838 3.50972L63.6328 10.3708L59.8605 15.0153C59.7326 15.1736 59.4981 15.2528 59.1571 15.2528H57.6866L54.0422 10.3708L48.9272 3.58889L49.2469 8.57639L49.3747 10.6083L49.4387 18.5778C49.4387 18.6833 49.3747 18.7625 49.2469 18.8153C49.1616 18.8505 48.8846 18.8769 48.4157 18.8945C47.9468 18.8945 47.3287 18.8945 46.5615 18.8945V0.73889C46.5615 0.527778 46.8172 0.422222 47.3287 0.422222H49.1829L56.4718 10.1597L58.8375 13.4056L61.0753 10.2653L68.2363 0.73889C68.4068 0.527778 68.6625 0.422222 69.0035 0.422222H71.1134Z" fill="#9A0041"/>
<path d="M82.9388 19C81.106 19 79.5502 18.9208 78.2714 18.7625C76.9927 18.6218 76.0336 18.4546 75.3942 18.2611C74.7975 18.05 74.4991 17.8477 74.4991 17.6542C74.4991 17.5134 74.5844 17.3727 74.7549 17.232C74.9254 17.0736 75.1598 16.9417 75.4582 16.8361C77.2058 17.487 79.6567 17.8125 82.811 17.8125C85.5816 17.8125 87.6276 17.5046 88.949 16.8889C90.313 16.2732 90.9949 15.4287 90.9949 14.3556C90.9949 13.5639 90.6539 12.8602 89.9719 12.2444C89.2899 11.6111 88.0538 10.9162 86.2636 10.1597L79.1665 7.20417C77.6321 6.51806 76.5025 5.89352 75.7779 5.33056C75.0532 4.75 74.6909 4.13426 74.6909 3.48333C74.6909 2.44537 75.6287 1.60972 77.5042 0.976389C79.3797 0.325463 81.9585 0 85.2406 0C87.8407 0 89.8228 0.114353 91.1868 0.343057C92.5508 0.571761 93.2327 0.826852 93.2327 1.10833C93.2327 1.37222 92.9557 1.61852 92.4016 1.84722C91.8048 1.6537 90.8671 1.47778 89.5883 1.31945C88.3522 1.16111 86.9243 1.08195 85.3045 1.08195C83.0028 1.08195 81.1486 1.30185 79.742 1.74167C78.378 2.16389 77.696 2.73565 77.696 3.45694C77.696 3.98472 77.9944 4.46852 78.5911 4.90833C79.2305 5.34815 80.1682 5.84074 81.4044 6.38611L89.2686 9.63195C91.0589 10.4236 92.295 11.1625 92.977 11.8486C93.659 12.5347 94 13.3352 94 14.25C94 15.6926 93.0836 16.8449 91.2507 17.707C89.4604 18.569 86.6898 19 82.9388 19Z" fill="#9A0041"/>
<path d="M43.304 17.7861H30.069V9.34167H41.258C41.5564 9.34167 41.7269 9.2801 41.7695 9.15695C41.8548 9.0338 41.8974 8.72593 41.8974 8.23334H30.069V4.5H27.1918V18.8945H42.6007C42.9417 18.8945 43.1335 18.8417 43.1761 18.7361C43.2614 18.613 43.304 18.2963 43.304 17.7861Z" fill="#9A0041"/>
<path d="M43 3C43 3 42.5754 1.62561 41.0606 1.5L28.9394 1.5H27C27 1.5 27.3678 2.74877 28.9394 3H41.0606H43Z" fill="#00957A"/>
</svg>
